<svg xmlns="http://www.w3.org/2000/svg" xmlns:xlink="http://www.w3.org/1999/xlink" viewBox="0 0 120.07 120.07"><defs><style>.cls-1{fill:url(#linear-gradient);}.cls-2{fill:#304058;}.cls-3{fill:#f9c300;}</style><linearGradient id="linear-gradient" y1="60.04" x2="120.07" y2="60.04" gradientUnits="userSpaceOnUse"><stop offset="0" stop-color="#ffc300"/><stop offset="1" stop-color="#f5e900"/></linearGradient></defs><g id="Layer_2" data-name="Layer 2"><g id="Yellow_Parts" data-name="Yellow Parts"><path class="cls-1" d="M60,120.07a60,60,0,1,1,60-60A60.1,60.1,0,0,1,60,120.07ZM60,12.69A47.35,47.35,0,1,0,107.39,60,47.4,47.4,0,0,0,60,12.69Z"/><path class="cls-2" d="M55.87,87.62H53.29l-.37,1H51.57l2.24-5.79h1.54l2.23,5.79H56.24Zm-2.25-1.07h1.92l-1-2.66Z"/><path class="cls-2" d="M58.12,82.82h2.71a1.86,1.86,0,1,1,0,3.72H59.36v2.07H58.12Zm2.55,1.06H59.36v1.6h1.31a.8.8,0,1,0,0-1.6Z"/><path class="cls-2" d="M63.54,82.82h2.71a1.86,1.86,0,1,1,0,3.72H64.77v2.07H63.54Zm2.55,1.06H64.77v1.6h1.32a.8.8,0,1,0,0-1.6Z"/><path class="cls-2" d="M50.15,93.56a.67.67,0,0,1,.66-.66.66.66,0,1,1-.66.66Zm.12,1.28h1.1V99h-1.1Z"/><path class="cls-2" d="M52.49,93.24h4.1V94.3H53.72v1.26h2.81v1.06H53.72V98h2.87V99h-4.1Z"/><path class="cls-2" d="M59.17,97.62,58.2,99H57l1.48-2.15-1.4-2H58.3l.87,1.29L60,94.84h1.23l-1.41,2L61.35,99H60.12Z"/><path class="cls-2" d="M63.6,94.74a2.1,2.1,0,0,1,2.1,2.31v.24H62.58a1.13,1.13,0,0,0,1.21,1,1.72,1.72,0,0,0,1.12-.42l.48.72a2.6,2.6,0,0,1-1.73.58,2.2,2.2,0,0,1-.06-4.4Zm-1,1.8h2.07a1,1,0,0,0-1-.93A1,1,0,0,0,62.56,96.54Z"/><path class="cls-2" d="M68.45,94.74a2,2,0,0,1,1.66.75l-.72.68a1,1,0,0,0-.89-.45,1.12,1.12,0,0,0-1.14,1.21,1.13,1.13,0,0,0,1.14,1.23,1.09,1.09,0,0,0,.89-.45l.72.66a1.94,1.94,0,0,1-1.66.77,2.2,2.2,0,1,1,0-4.4Z"/><path class="cls-3" d="M52.91,36.85H42.71a.26.26,0,0,1-.23-.28.25.25,0,0,1,.23-.27h10.2a.25.25,0,0,1,.23.27A.26.26,0,0,1,52.91,36.85Z"/><path class="cls-3" d="M44.87,42.3H42.71a.27.27,0,0,1,0-.54h2.16a.27.27,0,0,1,0,.54Z"/><path class="cls-3" d="M52.91,42.3H47.65a.27.27,0,0,1,0-.54h5.26a.27.27,0,0,1,0,.54Z"/><path class="cls-3" d="M48.89,47.4H42.71a.25.25,0,0,1-.23-.27.26.26,0,0,1,.23-.28h6.18a.26.26,0,0,1,.23.28A.25.25,0,0,1,48.89,47.4Z"/><path class="cls-3" d="M52.91,47.4H51.36a.25.25,0,0,1-.23-.27.26.26,0,0,1,.23-.28h1.55a.26.26,0,0,1,.23.28A.25.25,0,0,1,52.91,47.4Z"/><path class="cls-2" d="M53.32,28.33h-11a3,3,0,0,0-2.76,3.25V52.14a3,3,0,0,0,2.76,3.25h11a3,3,0,0,0,2.76-3.25V31.58A3,3,0,0,0,53.32,28.33Zm1.84,23.81a2,2,0,0,1-1.84,2.17h-11a2,2,0,0,1-1.84-2.17V51.06H55.16Zm0-2.16H40.45V33.74H55.16Zm0-17.32H40.45V31.58a2,2,0,0,1,1.84-2.17h11a2,2,0,0,1,1.84,2.17Z"/><path class="cls-2" d="M77.71,41.89h-11a3,3,0,0,0-2.76,3.25V65.7A3,3,0,0,0,66.68,69h11a3,3,0,0,0,2.76-3.25V45.14A3,3,0,0,0,77.71,41.89ZM79.55,65.7a2,2,0,0,1-1.84,2.17h-11a2,2,0,0,1-1.84-2.17V64.62H79.55Zm0-2.16H64.84V47.3H79.55Zm0-17.32H64.84V45.14A2,2,0,0,1,66.68,43h11a2,2,0,0,1,1.84,2.17Z"/><path class="cls-3" d="M77.29,50.41H67.09a.26.26,0,0,1-.23-.28.25.25,0,0,1,.23-.27h10.2a.25.25,0,0,1,.23.27A.26.26,0,0,1,77.29,50.41Z"/><path class="cls-3" d="M69.26,55.86H67.09a.27.27,0,0,1,0-.54h2.17a.27.27,0,0,1,0,.54Z"/><path class="cls-3" d="M77.29,55.86H72a.27.27,0,0,1,0-.54h5.25a.27.27,0,0,1,0,.54Z"/><path class="cls-3" d="M73.27,61H67.09a.25.25,0,0,1-.23-.27.26.26,0,0,1,.23-.28h6.18a.27.27,0,0,1,.24.28A.26.26,0,0,1,73.27,61Z"/><path class="cls-3" d="M77.29,61H75.75a.25.25,0,0,1-.23-.27.26.26,0,0,1,.23-.28h1.54a.26.26,0,0,1,.23.28A.25.25,0,0,1,77.29,61Z"/></g></g></svg>