<svg xmlns="http://www.w3.org/2000/svg" xmlns:xlink="http://www.w3.org/1999/xlink" viewBox="0 0 120.07 120.07"><defs><style>.cls-1{fill:url(#linear-gradient);}.cls-2,.cls-3{fill:#304058;}.cls-10,.cls-11,.cls-12,.cls-13,.cls-14,.cls-15,.cls-3,.cls-4,.cls-5,.cls-6,.cls-7,.cls-8,.cls-9{stroke:#fff;stroke-miterlimit:10;}.cls-4{fill:url(#linear-gradient-2);}.cls-5{fill:url(#linear-gradient-3);}.cls-6{fill:url(#linear-gradient-4);}.cls-7{fill:url(#linear-gradient-5);}.cls-8{fill:url(#linear-gradient-6);}.cls-9{fill:url(#linear-gradient-7);}.cls-10{fill:url(#linear-gradient-8);}.cls-11{fill:url(#linear-gradient-9);}.cls-12{fill:url(#linear-gradient-10);}.cls-13{fill:url(#linear-gradient-11);}.cls-14{fill:url(#linear-gradient-12);}.cls-15{fill:url(#linear-gradient-13);}</style><linearGradient id="linear-gradient" y1="60.04" x2="120.07" y2="60.04" gradientUnits="userSpaceOnUse"><stop offset="0" stop-color="#ffc300"/><stop offset="1" stop-color="#f5e900"/></linearGradient><linearGradient id="linear-gradient-2" x1="66.07" y1="45.24" x2="82.01" y2="45.24" xlink:href="#linear-gradient"/><linearGradient id="linear-gradient-3" x1="66.07" y1="42.94" x2="82.01" y2="42.94" xlink:href="#linear-gradient"/><linearGradient id="linear-gradient-4" x1="66.07" y1="40.65" x2="82.01" y2="40.65" xlink:href="#linear-gradient"/><linearGradient id="linear-gradient-5" x1="66.07" y1="38.35" x2="82.01" y2="38.35" xlink:href="#linear-gradient"/><linearGradient id="linear-gradient-6" x1="66.07" y1="36.06" x2="82.01" y2="36.06" xlink:href="#linear-gradient"/><linearGradient id="linear-gradient-7" x1="66.07" y1="33.76" x2="82.01" y2="33.76" xlink:href="#linear-gradient"/><linearGradient id="linear-gradient-8" x1="66.07" y1="68.44" x2="82.01" y2="68.44" xlink:href="#linear-gradient"/><linearGradient id="linear-gradient-9" x1="66.07" y1="66.14" x2="82.01" y2="66.14" xlink:href="#linear-gradient"/><linearGradient id="linear-gradient-10" x1="66.07" y1="63.85" x2="82.01" y2="63.85" xlink:href="#linear-gradient"/><linearGradient id="linear-gradient-11" x1="66.07" y1="61.55" x2="82.01" y2="61.55" xlink:href="#linear-gradient"/><linearGradient id="linear-gradient-12" x1="66.07" y1="59.26" x2="82.01" y2="59.26" xlink:href="#linear-gradient"/><linearGradient id="linear-gradient-13" x1="66.07" y1="56.96" x2="82.01" y2="56.96" xlink:href="#linear-gradient"/></defs><g id="Layer_2" data-name="Layer 2"><g id="Yellow_Parts" data-name="Yellow Parts"><path class="cls-1" d="M60,120.07a60,60,0,1,1,60-60A60.1,60.1,0,0,1,60,120.07ZM60,12.69A47.35,47.35,0,1,0,107.39,60,47.4,47.4,0,0,0,60,12.69Z"/><path class="cls-2" d="M42,87.69h2.29a2.9,2.9,0,1,1,0,5.79H42Zm2.29,4.7a1.73,1.73,0,0,0,1.81-1.8,1.69,1.69,0,0,0-1.81-1.82h-1v3.62Z"/><path class="cls-2" d="M51.66,92.48H49.08l-.37,1H47.36l2.24-5.79h1.54l2.23,5.79H52Zm-2.25-1.07h1.92l-1-2.65Z"/><path class="cls-2" d="M54.7,88.77H53V87.69h4.62v1.08H55.94v4.71H54.7Z"/><path class="cls-2" d="M61.55,92.48H59l-.37,1H57.24l2.24-5.79H61l2.23,5.79H61.91Zm-2.26-1.07h1.92l-1-2.65Z"/><path class="cls-2" d="M64,91.73a2.56,2.56,0,0,0,1.84.78c.68,0,1-.32,1-.65s-.5-.59-1.17-.74c-1-.22-2.16-.48-2.16-1.77,0-1,.83-1.75,2.19-1.75a3.22,3.22,0,0,1,2.26.81l-.69.9a2.46,2.46,0,0,0-1.65-.63c-.56,0-.85.24-.85.59s.48.51,1.15.67c1,.21,2.17.5,2.17,1.79,0,1-.75,1.85-2.32,1.85a3.3,3.3,0,0,1-2.45-.92Z"/><path class="cls-2" d="M69,87.69H73v1.06H70.18V90H73v1.06h-2.8v1.34H73v1.07H69Z"/><path class="cls-2" d="M75.34,88.77H73.65V87.69h4.62v1.08H76.59v4.71H75.34Z"/><path class="cls-2" d="M50.13,98.43a.66.66,0,1,1,.66.66A.66.66,0,0,1,50.13,98.43Zm.11,1.28h1.1v4.19h-1.1Z"/><path class="cls-2" d="M52.46,98.11h4.1v1.06H53.7v1.26h2.8v1.06H53.7v1.34h2.86v1.07h-4.1Z"/><path class="cls-2" d="M59.14,102.48l-1,1.42H57l1.49-2.15-1.4-2h1.23l.87,1.29L60,99.71h1.23l-1.4,2,1.5,2.15H60.1Z"/><path class="cls-2" d="M63.57,99.6a2.1,2.1,0,0,1,2.1,2.31v.24H62.55a1.14,1.14,0,0,0,1.21,1,1.72,1.72,0,0,0,1.12-.42l.49.71a2.64,2.64,0,0,1-1.73.58,2.2,2.2,0,1,1-.07-4.4Zm-1,1.81H64.6a1,1,0,0,0-1-.93A1,1,0,0,0,62.54,101.41Z"/><path class="cls-2" d="M68.42,99.6a1.94,1.94,0,0,1,1.66.76l-.72.67a1,1,0,0,0-.88-.45,1.22,1.22,0,0,0,0,2.44,1,1,0,0,0,.88-.45l.72.67a1.94,1.94,0,0,1-1.66.76,2.2,2.2,0,1,1,0-4.4Z"/><ellipse class="cls-3" cx="49.12" cy="59.91" rx="11.05" ry="3.84"/><ellipse class="cls-3" cx="49.12" cy="56.73" rx="11.05" ry="3.84"/><ellipse class="cls-3" cx="49.12" cy="53.54" rx="11.05" ry="3.84"/><ellipse class="cls-3" cx="49.12" cy="50.36" rx="11.05" ry="3.84"/><ellipse class="cls-3" cx="49.12" cy="47.17" rx="11.05" ry="3.84"/><ellipse class="cls-3" cx="49.12" cy="43.99" rx="11.05" ry="3.84"/><polygon class="cls-2" points="63.82 45.52 63.82 57.8 66.84 57.8 66.84 59.16 62.51 59.16 62.51 52.36 58.59 52.36 58.59 50.95 62.51 50.95 62.51 44.16 66.84 44.16 66.84 45.52 63.82 45.52"/><ellipse class="cls-4" cx="74.04" cy="45.24" rx="7.97" ry="2.77"/><ellipse class="cls-5" cx="74.04" cy="42.94" rx="7.97" ry="2.77"/><ellipse class="cls-6" cx="74.04" cy="40.65" rx="7.97" ry="2.77"/><ellipse class="cls-7" cx="74.04" cy="38.35" rx="7.97" ry="2.77"/><ellipse class="cls-8" cx="74.04" cy="36.06" rx="7.97" ry="2.77"/><ellipse class="cls-9" cx="74.04" cy="33.76" rx="7.97" ry="2.77"/><ellipse class="cls-10" cx="74.04" cy="68.44" rx="7.97" ry="2.77"/><ellipse class="cls-11" cx="74.04" cy="66.14" rx="7.97" ry="2.77"/><ellipse class="cls-12" cx="74.04" cy="63.85" rx="7.97" ry="2.77"/><ellipse class="cls-13" cx="74.04" cy="61.55" rx="7.97" ry="2.77"/><ellipse class="cls-14" cx="74.04" cy="59.26" rx="7.97" ry="2.77"/><ellipse class="cls-15" cx="74.04" cy="56.96" rx="7.97" ry="2.77"/></g></g></svg>