<svg xmlns="http://www.w3.org/2000/svg" xmlns:xlink="http://www.w3.org/1999/xlink" viewBox="0 0 120.07 120.07"><defs><style>.cls-1{fill:url(#linear-gradient);}.cls-2{fill:#304058;}.cls-3{fill:#353640;}.cls-4{fill:#f9c300;}</style><linearGradient id="linear-gradient" y1="60.04" x2="120.07" y2="60.04" gradientUnits="userSpaceOnUse"><stop offset="0" stop-color="#ffc300"/><stop offset="1" stop-color="#f5e900"/></linearGradient></defs><g id="Layer_2" data-name="Layer 2"><g id="Yellow_Parts" data-name="Yellow Parts"><path class="cls-1" d="M60,120.07a60,60,0,1,1,60-60A60.1,60.1,0,0,1,60,120.07ZM60,12.69A47.35,47.35,0,1,0,107.39,60,47.4,47.4,0,0,0,60,12.69Z"/><path class="cls-2" d="M34.24,89.5l-1,4H31.92l-1.66-5.79h1.38l1,4.18,1.1-4.18h1l1.09,4.18,1-4.18h1.39l-1.65,5.79H35.26Z"/><path class="cls-2" d="M41.37,87.59a3,3,0,1,1-3,3A2.91,2.91,0,0,1,41.37,87.59Zm0,1.1a1.91,1.91,0,1,0,1.76,1.9A1.75,1.75,0,0,0,41.37,88.69Z"/><path class="cls-2" d="M47.4,91.4h-.9v2.08H45.27V87.69H48a1.8,1.8,0,0,1,1.94,1.87,1.67,1.67,0,0,1-1.27,1.72L50,93.48H48.54Zm.39-2.65H46.5v1.6h1.29a.8.8,0,1,0,0-1.6Z"/><path class="cls-2" d="M52.54,91.16l-.46.54v1.78H50.85V87.69h1.23v2.59l2.05-2.59h1.52l-2.3,2.72,2.46,3.07H54.29Z"/><path class="cls-2" d="M56.37,87.69h4.1v1.06H57.61V90h2.8v1.06h-2.8v1.34h2.86v1.07h-4.1Z"/><path class="cls-2" d="M63.57,91.4h-.9v2.08H61.44V87.69h2.71a1.8,1.8,0,0,1,1.94,1.87,1.67,1.67,0,0,1-1.27,1.72l1.3,2.2H64.71ZM64,88.75H62.67v1.6H64a.8.8,0,1,0,0-1.6Z"/><path class="cls-2" d="M67,87.69h2.71a1.86,1.86,0,1,1,0,3.71H68.25v2.08H67Zm2.54,1.06H68.25v1.6h1.31a.8.8,0,1,0,0-1.6Z"/><path class="cls-2" d="M75.18,87.59a3,3,0,1,1-3,3A2.91,2.91,0,0,1,75.18,87.59Zm0,1.1a1.91,1.91,0,1,0,1.76,1.9A1.74,1.74,0,0,0,75.18,88.69Z"/><path class="cls-2" d="M81.82,87.59a3,3,0,1,1-3,3A2.91,2.91,0,0,1,81.82,87.59Zm0,1.1a1.9,1.9,0,1,0,1.77,1.9A1.75,1.75,0,0,0,81.82,88.69Z"/><path class="cls-2" d="M85.72,87.69H87V92.4H89.4v1.08H85.72Z"/><path class="cls-2" d="M50.13,98.43a.66.66,0,1,1,.66.66A.67.67,0,0,1,50.13,98.43Zm.11,1.28h1.1v4.19h-1.1Z"/><path class="cls-2" d="M52.46,98.11h4.1v1.06H53.7v1.26h2.8v1.06H53.7v1.34h2.86v1.07h-4.1Z"/><path class="cls-2" d="M59.14,102.49l-1,1.41H57l1.49-2.15-1.4-2h1.23l.87,1.29L60,99.71h1.23l-1.4,2,1.5,2.15H60.1Z"/><path class="cls-2" d="M63.57,99.6a2.1,2.1,0,0,1,2.1,2.31v.24H62.55a1.14,1.14,0,0,0,1.21,1,1.72,1.72,0,0,0,1.12-.42l.49.71a2.64,2.64,0,0,1-1.73.58,2.2,2.2,0,1,1-.07-4.4Zm-1,1.81H64.6a1,1,0,0,0-1-.93A1,1,0,0,0,62.54,101.41Z"/><path class="cls-2" d="M68.42,99.6a2,2,0,0,1,1.66.76l-.72.67a1,1,0,0,0-.88-.45,1.22,1.22,0,0,0,0,2.44,1,1,0,0,0,.88-.45l.72.67a1.94,1.94,0,0,1-1.66.76,2.2,2.2,0,1,1,0-4.4Z"/><path class="cls-3" d="M76.5,37.07a.89.89,0,1,0-.89.89A.89.89,0,0,0,76.5,37.07Z"/><path class="cls-3" d="M76.7,31.27H43.25A3.29,3.29,0,0,0,40,34.55v5a3.28,3.28,0,0,0,3.28,3.27H76.7A3.28,3.28,0,0,0,80,39.59v-5A3.29,3.29,0,0,0,76.7,31.27Zm2.17,8.32a2.17,2.17,0,0,1-2.17,2.16H43.25a2.17,2.17,0,0,1-2.17-2.16v-5a2.17,2.17,0,0,1,2.17-2.17H76.7a2.17,2.17,0,0,1,2.17,2.17Z"/><path class="cls-3" d="M50.59,35.92h-.82a.56.56,0,1,1,0-1.11h.82a.56.56,0,1,1,0,1.11Z"/><path class="cls-3" d="M50.59,39.33h-.82a.56.56,0,1,1,0-1.11h.82a.56.56,0,1,1,0,1.11Z"/><path class="cls-3" d="M52.65,37.62h-.82a.56.56,0,1,1,0-1.11h.82a.56.56,0,1,1,0,1.11Z"/><path class="cls-3" d="M54.71,35.92h-.82a.56.56,0,1,1,0-1.11h.82a.56.56,0,1,1,0,1.11Z"/><path class="cls-3" d="M54.71,39.33h-.82a.56.56,0,1,1,0-1.11h.82a.56.56,0,1,1,0,1.11Z"/><path class="cls-3" d="M56.77,37.62H56a.56.56,0,1,1,0-1.11h.82a.56.56,0,1,1,0,1.11Z"/><path class="cls-3" d="M58.83,35.92H58a.56.56,0,0,1,0-1.11h.82a.56.56,0,1,1,0,1.11Z"/><path class="cls-3" d="M58.83,39.33H58a.56.56,0,0,1,0-1.11h.82a.56.56,0,1,1,0,1.11Z"/><path class="cls-3" d="M72.15,37.62h-9a.56.56,0,1,1,0-1.11h9a.56.56,0,1,1,0,1.11Z"/><path class="cls-3" d="M79.39,56.24a.56.56,0,0,1-.56-.55V52.52A2.5,2.5,0,0,0,76.34,50H64.52a3.61,3.61,0,0,1-3.61-3.61V42.86a.56.56,0,0,1,1.11,0v3.55a2.5,2.5,0,0,0,2.5,2.5H76.34a3.61,3.61,0,0,1,3.6,3.61v3.17A.55.55,0,0,1,79.39,56.24Z"/><path class="cls-3" d="M40.56,56.24a.55.55,0,0,1-.55-.55V52.52a3.61,3.61,0,0,1,3.6-3.61H55.43a2.5,2.5,0,0,0,2.5-2.5V42.86a.56.56,0,0,1,1.11,0v3.55A3.61,3.61,0,0,1,55.43,50H43.61a2.5,2.5,0,0,0-2.49,2.5v3.17A.56.56,0,0,1,40.56,56.24Z"/><path class="cls-3" d="M47.94,60a.56.56,0,0,0,.56-.57V56.57a.56.56,0,0,0-.56-.57H33.19a.56.56,0,0,0-.57.57V59.4a.56.56,0,0,0,.57.57H34v1.42h-.85a.57.57,0,0,0-.57.57V64.8a.56.56,0,0,0,.57.56H34v1.42h-.85a.57.57,0,0,0-.57.57v2.84a.56.56,0,0,0,.57.56H47.94a.56.56,0,0,0,.56-.56V67.35a.57.57,0,0,0-.56-.57h-.85V65.36h.85a.56.56,0,0,0,.56-.56V62a.57.57,0,0,0-.56-.57h-.85V60Zm0,7.38v2.84H33.19V67.35Zm-13.33-.57V65.36H46.52v1.42ZM47.94,62V64.8H33.19V62Zm-13.33-.57V60H46.52v1.42Zm-1.42-2V56.57H47.94V59.4Z"/><rect class="cls-3" x="36.16" y="57.7" width="0.57" height="0.57"/><rect class="cls-3" x="34.61" y="57.7" width="0.57" height="0.57"/><rect class="cls-3" x="37.72" y="57.7" width="0.57" height="0.57"/><path class="cls-3" d="M86.76,60a.56.56,0,0,0,.57-.57V56.57a.56.56,0,0,0-.57-.57H72a.57.57,0,0,0-.57.57V59.4A.57.57,0,0,0,72,60h.85v1.42H72a.58.58,0,0,0-.57.57V64.8a.57.57,0,0,0,.57.56h.85v1.42H72a.58.58,0,0,0-.57.57v2.84a.57.57,0,0,0,.57.56H86.76a.56.56,0,0,0,.57-.56V67.35a.57.57,0,0,0-.57-.57h-.85V65.36h.85a.56.56,0,0,0,.57-.56V62a.57.57,0,0,0-.57-.57h-.85V60Zm0,7.38v2.84H72V67.35Zm-13.33-.57V65.36H85.34v1.42ZM86.76,62V64.8H72V62Zm-13.33-.57V60H85.34v1.42ZM72,59.4V56.57H86.76V59.4Z"/><rect class="cls-3" x="74.99" y="57.7" width="0.57" height="0.57"/><rect class="cls-3" x="73.43" y="57.7" width="0.57" height="0.57"/><rect class="cls-3" x="76.55" y="57.7" width="0.57" height="0.57"/><path class="cls-4" d="M45.11,32.38h-2.9a1.16,1.16,0,0,0-1.13,1.2v7a1.16,1.16,0,0,0,1.13,1.19h2.9a1.2,1.2,0,0,0,1-1.65,9.43,9.43,0,0,1,0-6.06A1.2,1.2,0,0,0,45.11,32.38Z"/><rect class="cls-4" x="36.16" y="63.09" width="0.57" height="0.57"/><rect class="cls-4" x="34.61" y="63.09" width="0.57" height="0.57"/><rect class="cls-4" x="37.72" y="63.09" width="0.57" height="0.57"/><rect class="cls-4" x="36.16" y="68.48" width="0.57" height="0.57"/><rect class="cls-4" x="34.61" y="68.48" width="0.57" height="0.57"/><rect class="cls-4" x="37.72" y="68.48" width="0.57" height="0.57"/><rect class="cls-4" x="74.99" y="63.09" width="0.57" height="0.57"/><rect class="cls-4" x="73.43" y="63.09" width="0.57" height="0.57"/><rect class="cls-4" x="76.55" y="63.09" width="0.57" height="0.57"/><rect class="cls-4" x="74.99" y="68.48" width="0.57" height="0.57"/><rect class="cls-4" x="73.43" y="68.48" width="0.57" height="0.57"/><rect class="cls-4" x="76.55" y="68.48" width="0.57" height="0.57"/></g></g></svg>